<svg xmlns="http://www.w3.org/2000/svg" version="1.1" xmlns:xlink="http://www.w3.org/1999/xlink" xmlns:svgjs="http://svgjs.dev/svgjs" width="2000" height="1500" viewBox="0 0 2000 1500"><rect width="2000" height="1500" fill="#000000"></rect><g transform="matrix(0.75,0,0,0.75,249.09090948082041,585.3300999124516)"><svg viewBox="0 0 396 87" data-background-color="#6936f5" preserveAspectRatio="xMidYMid meet" height="439" width="2000" xmlns="http://www.w3.org/2000/svg" xmlns:xlink="http://www.w3.org/1999/xlink"><g id="tight-bounds" transform="matrix(1,0,0,1,0.2400001029365626,0.011864260035565621)"><svg viewBox="0 0 395.52 86.97627147992887" height="86.97627147992887" width="395.52"><g><svg viewBox="0 0 532.6638912970262 117.13470675820558" height="86.97627147992887" width="395.52"><g transform="matrix(1,0,0,1,0,16.1886606301138)"><svg viewBox="0 0 395.52 84.75738549797798" height="84.75738549797798" width="395.52"><g><svg viewBox="0 0 395.52 84.75738549797798" height="84.75738549797798" width="395.52"><g><svg viewBox="0 0 395.52 84.75738549797798" height="84.75738549797798" width="395.52"><g transform="matrix(1,0,0,1,0,0)"><svg width="395.52" viewBox="2.640000104904175 -31.610000610351562 149.64999389648438 32.0712776184082" height="84.75738549797798" data-palette-color="#ffffff"><path d="M7.13-23.45L7.13-23.45Q7.13-22.24 7.93-21.18 8.74-20.11 10-19.43 11.26-18.74 12.87-18.22 14.48-17.7 16.26-17.13 18.05-16.55 19.77-15.86 21.49-15.17 22.76-14.14L22.76-14.14Q25.52-11.9 25.52-8.05L25.52-8.05Q25.52-6.21 24.66-4.57 23.79-2.93 22.24-1.84L22.24-1.84Q19.08 0.46 13.79 0.46L13.79 0.46Q8.79 0.46 5-2.07L5-2.07Q2.64-3.56 2.64-4.6L2.64-4.6Q2.64-5.52 3.56-6.09L3.56-6.09Q3.79-6.32 4.14-6.32 4.48-6.32 4.89-6.03 5.29-5.75 5.83-5.34 6.38-4.94 7.21-4.45 8.05-3.97 8.97-3.56L8.97-3.56Q11.26-2.64 13.45-2.7 15.63-2.76 16.95-3.05 18.28-3.33 19.31-4.02L19.31-4.02Q21.49-5.52 21.55-7.82L21.55-7.82Q21.55-10.69 18.74-12.24L18.74-12.24Q17.47-12.93 15.89-13.48 14.31-14.02 12.56-14.54 10.8-15.06 9.08-15.8 7.36-16.55 6.03-17.59L6.03-17.59Q3.22-19.83 3.22-23.33L3.22-23.33Q3.22-25.17 4.11-26.78 5-28.39 6.55-29.43L6.55-29.43Q9.54-31.55 14.02-31.61L14.02-31.61Q20.52-31.61 24.48-27.41L24.48-27.41Q24.71-27.07 24.71-26.64 24.71-26.21 24.68-25.92 24.66-25.63 24.37-25.34L24.37-25.34Q23.97-24.83 23.3-24.83 22.64-24.83 21.9-25.69L21.9-25.69Q20-27.07 18.85-27.47L18.85-27.47Q16.55-28.39 14.37-28.39L14.37-28.39Q11.55-28.39 9.54-27.24L9.54-27.24Q7.13-25.86 7.13-23.45ZM32.07-10.92L32.07-29.48Q32.07-30.34 32.53-30.69L32.53-30.69Q33.27-31.38 34.05-31.38 34.83-31.38 35.43-30.92 36.03-30.46 36.03-29.48L36.03-29.48 36.03-10.92Q36.03-7.01 38.62-4.71L38.62-4.71Q40.92-2.76 44.31-2.76L44.31-2.76Q47.76-2.76 50-4.71L50-4.71Q52.58-6.9 52.58-10.92L52.58-10.92 52.58-29.48Q52.58-30.34 53.1-30.69L53.1-30.69Q53.79-31.38 54.57-31.38 55.34-31.38 55.95-30.92 56.55-30.46 56.55-29.48L56.55-29.48 56.55-10.92Q56.55-5.4 52.87-2.24L52.87-2.24Q49.54 0.52 44.31 0.46L44.31 0.46Q39.14 0.46 35.74-2.24L35.74-2.24Q32.07-5.4 32.07-10.92L32.07-10.92ZM64.88-1.9L64.88-29.48Q64.88-30.17 65.28-30.57L65.28-30.57Q65.97-31.26 66.78-31.38L66.78-31.38 76.89-31.38Q81.09-31.38 83.79-29.14L83.79-29.14Q86.43-27.01 86.43-23.45L86.43-23.45Q86.43-20.86 84.82-18.97L84.82-18.97Q83.1-17.01 80.4-16.38L80.4-16.38 80.4-16.32Q85.57-15.4 87.24-11.38L87.24-11.38Q87.7-10.11 87.7-8.51 87.7-6.9 87.18-5.34 86.66-3.79 85.4-2.64L85.4-2.64Q82.52 0 77.29 0L77.29 0 66.78 0Q66.09 0 65.57-0.46L65.57-0.46Q64.88-1.03 64.88-1.9L64.88-1.9ZM68.67-14.71L68.67-2.99 75.28-2.99Q79.65-2.99 81.43-4.25L81.43-4.25Q83.67-5.63 83.67-8.85L83.67-8.85Q83.67-13.91 77.7-14.6L77.7-14.6Q75.91-14.71 73.67-14.71L73.67-14.71 68.67-14.71ZM82.47-23.1L82.47-23.1Q82.47-28.39 75.17-28.28L75.17-28.28 68.67-28.28 68.67-17.59 75.22-17.59Q80.05-17.59 81.83-20.52L81.83-20.52Q82.47-21.55 82.47-23.1ZM115.57-17.93L115.57-29.48Q115.57-30.8 116.89-31.21L116.89-31.21Q117.23-31.26 117.75-31.32 118.27-31.38 118.9-30.92 119.53-30.46 119.53-29.48L119.53-29.48 119.53-1.9Q119.53-1.03 119.02-0.57L119.02-0.57Q118.33 0 117.55 0 116.77 0 116.17-0.46 115.57-0.92 115.57-1.9L115.57-1.9 115.57-14.66 99.07-14.66 99.07-1.9Q99.07-1.03 98.61-0.57L98.61-0.57Q97.92 0 97.12 0 96.31 0 95.74-0.46 95.16-0.92 95.16-1.9L95.16-1.9 95.16-29.48Q95.16-30.8 96.43-31.21L96.43-31.21Q96.77-31.26 97.29-31.32 97.81-31.38 98.44-30.92 99.07-30.46 99.07-29.48L99.07-29.48 99.07-17.93 115.57-17.93ZM127.81-10.92L127.81-29.48Q127.81-30.34 128.27-30.69L128.27-30.69Q129.01-31.38 129.79-31.38 130.56-31.38 131.17-30.92 131.77-30.46 131.77-29.48L131.77-29.48 131.77-10.92Q131.77-7.01 134.36-4.71L134.36-4.71Q136.66-2.76 140.05-2.76L140.05-2.76Q143.5-2.76 145.74-4.71L145.74-4.71Q148.32-6.9 148.32-10.92L148.32-10.92 148.32-29.48Q148.32-30.34 148.84-30.69L148.84-30.69Q149.53-31.38 150.31-31.38 151.08-31.38 151.69-30.92 152.29-30.46 152.29-29.48L152.29-29.48 152.29-10.92Q152.29-5.4 148.61-2.24L148.61-2.24Q145.28 0.52 140.05 0.46L140.05 0.46Q134.88 0.46 131.48-2.24L131.48-2.24Q127.81-5.4 127.81-10.92L127.81-10.92Z" opacity="1" transform="matrix(1,0,0,1,0,0)" fill="#ffffff" class="undefined-text-0" data-fill-palette-color="primary" id="text-0"></path></svg></g></svg></g></svg></g></svg></g><g transform="matrix(1,0,0,1,415.52918453882063,0)"><svg viewBox="0 0 117.13470675820558 117.13470675820558" height="117.13470675820558" width="117.13470675820558"><g data-palette-color="#ffffff"><rect width="32.01681984724286" height="117.13470675820558" fill="#ffffff" stroke="transparent" data-fill-palette-color="accent" x="0" fill-opacity="1"></rect><rect width="32.01681984724286" height="117.13470675820558" fill="#ffffff" stroke="transparent" data-fill-palette-color="accent" x="39.04490225273519" fill-opacity="0.75"></rect><rect width="32.01681984724286" height="117.13470675820558" fill="#ffffff" stroke="transparent" data-fill-palette-color="accent" x="78.08980450547038" fill-opacity="0.5"></rect></g></svg></g></svg></g><defs></defs></svg><rect width="395.52" height="86.97627147992887" fill="none" stroke="none" visibility="hidden"></rect></g></svg></g></svg>